<?xml version="1.0" encoding="UTF-8"?>
<svg id="Layer_1" xmlns="http://www.w3.org/2000/svg" version="1.1" xmlns:xlink="http://www.w3.org/1999/xlink" viewBox="0 0 385.12 136.87">
  <!-- Generator: Adobe Illustrator 29.8.2, SVG Export Plug-In . SVG Version: 2.1.1 Build 3)  -->
  <defs>
    <style>
      .st0 {
        clip-path: url(#clippath-51);
      }

      .st1, .st2 {
        fill: #f6cb03;
      }

      .st3 {
        clip-path: url(#clippath-21);
      }

      .st4 {
        clip-path: url(#clippath-6);
      }

      .st5 {
        clip-path: url(#clippath-7);
      }

      .st6 {
        clip-path: url(#clippath-31);
      }

      .st7 {
        clip-path: url(#clippath-15);
      }

      .st8 {
        clip-path: url(#clippath-33);
      }

      .st9 {
        clip-path: url(#clippath-18);
      }

      .st10 {
        clip-path: url(#clippath-47);
      }

      .st11 {
        clip-path: url(#clippath-4);
      }

      .st12 {
        clip-path: url(#clippath-22);
      }

      .st13 {
        clip-path: url(#clippath-9);
      }

      .st14 {
        clip-path: url(#clippath-10);
      }

      .st15 {
        clip-path: url(#clippath-43);
      }

      .st16 {
        clip-path: url(#clippath-25);
      }

      .st17 {
        clip-path: url(#clippath-27);
      }

      .st18 {
        clip-path: url(#clippath-35);
      }

      .st19 {
        clip-path: url(#clippath-28);
      }

      .st20 {
        clip-path: url(#clippath-1);
      }

      .st21 {
        clip-path: url(#clippath-45);
      }

      .st22 {
        clip-path: url(#clippath-41);
      }

      .st23 {
        clip-path: url(#clippath-3);
      }

      .st24 {
        clip-path: url(#clippath-12);
      }

      .st25 {
        clip-path: url(#clippath-30);
      }

      .st26 {
        clip-path: url(#clippath-19);
      }

      .st2 {
        fill-rule: evenodd;
      }

      .st27 {
        clip-path: url(#clippath-53);
      }

      .st28 {
        clip-path: url(#clippath-39);
      }

      .st29 {
        clip-path: url(#clippath-16);
      }

      .st30 {
        clip-path: url(#clippath-49);
      }

      .st31 {
        clip-path: url(#clippath-37);
      }

      .st32 {
        clip-path: url(#clippath-13);
      }

      .st33 {
        clip-path: url(#clippath-24);
      }

      .st34 {
        clip-path: url(#clippath);
      }
    </style>
    <clipPath id="clippath">
      <polygon class="st1" points="180.51 63.23 180.46 34.94 169.26 34.89 169.26 26.76 201.93 26.76 201.93 34.94 190.73 34.89 190.78 63.23 180.51 63.23"/>
    </clipPath>
    <clipPath id="clippath-1">
      <rect class="st1" x="166.84" y="-72.3" width="445.93" height="297.29"/>
    </clipPath>
    <clipPath id="clippath-3">
      <path class="st1" d="M216.1,50.31l-4.58-4.74h10.32c2.15,0,3.76-.47,4.82-1.41,1.06-.94,1.59-2.24,1.59-3.91s-.53-3.02-1.59-3.96c-1.06-.94-2.67-1.41-4.82-1.41h-10.32l4.58-4.74v20.16ZM228.34,63.23l-9.07-13.29h10.99l9.12,13.29h-11.05ZM205.78,63.23V26.76h16.67c3.33,0,6.21.54,8.62,1.61,2.41,1.08,4.28,2.63,5.6,4.66,1.32,2.03,1.98,4.44,1.98,7.22s-.66,5.11-1.98,7.11c-1.32,2-3.19,3.52-5.6,4.58-2.41,1.06-5.29,1.59-8.62,1.59h-10.94l4.58-4.33v14.02h-10.32Z"/>
    </clipPath>
    <clipPath id="clippath-4">
      <rect class="st1" x="166.84" y="-72.3" width="445.93" height="297.29"/>
    </clipPath>
    <clipPath id="clippath-6">
      <path class="st1" d="M248.77,56.14l2.66-7.61h17.82l2.66,7.61h-23.13ZM239.96,63.23l16.1-36.47h10.16l16.15,36.47h-10.73l-12.61-31.42h4.06l-12.61,31.42h-10.53Z"/>
    </clipPath>
    <clipPath id="clippath-7">
      <rect class="st1" x="166.84" y="-72.3" width="445.93" height="297.29"/>
    </clipPath>
    <clipPath id="clippath-9">
      <polygon class="st1" points="294.46 63.23 278.88 26.76 290.03 26.76 303.16 58.33 296.6 58.33 310.04 26.76 320.25 26.76 304.62 63.23 294.46 63.23"/>
    </clipPath>
    <clipPath id="clippath-10">
      <rect class="st1" x="166.84" y="-72.3" width="445.93" height="297.29"/>
    </clipPath>
    <clipPath id="clippath-12">
      <path class="st1" d="M332.5,55.31l19.17-.05-.05,7.97h-29.23l.05-36.47h28.55l-.1,7.92-18.29.05-.1,20.58ZM331.82,40.93l16.98-.05-.05,7.66-16.88.05-.05-7.66Z"/>
    </clipPath>
    <clipPath id="clippath-13">
      <rect class="st1" x="166.84" y="-72.3" width="445.93" height="297.29"/>
    </clipPath>
    <clipPath id="clippath-15">
      <polygon class="st1" points="357.45 63.23 357.4 26.76 367.67 26.76 367.72 55.05 385.07 55.1 385.12 63.23 357.45 63.23"/>
    </clipPath>
    <clipPath id="clippath-16">
      <rect class="st1" x="166.84" y="-72.3" width="445.93" height="297.29"/>
    </clipPath>
    <clipPath id="clippath-18">
      <path class="st1" d="M195.57,104.12v-13.76h9.12v15.11l-9.12-1.35ZM189.37,110.11c-2.88,0-5.56-.46-8.02-1.38-2.47-.92-4.59-2.23-6.38-3.93-1.79-1.7-3.19-3.71-4.19-6.02-1.01-2.31-1.51-4.85-1.51-7.63s.5-5.32,1.51-7.63c1.01-2.31,2.41-4.32,4.22-6.02,1.81-1.7,3.95-3.01,6.43-3.93,2.48-.92,5.2-1.38,8.15-1.38,3.44,0,6.51.57,9.22,1.72,2.71,1.15,4.95,2.8,6.72,4.95l-6.56,5.94c-1.25-1.35-2.6-2.37-4.04-3.05-1.44-.68-3.05-1.02-4.82-1.02-1.56,0-2.99.24-4.27.73-1.29.49-2.38,1.19-3.28,2.11-.9.92-1.61,2.02-2.11,3.28-.5,1.27-.76,2.7-.76,4.3s.25,2.94.76,4.22c.5,1.29,1.21,2.39,2.11,3.31.9.92,1.99,1.63,3.26,2.14,1.27.5,2.67.75,4.19.75s3.02-.25,4.48-.75c1.46-.5,2.94-1.36,4.43-2.58l5.78,7.24c-2.08,1.49-4.5,2.64-7.24,3.44-2.74.8-5.44,1.2-8.08,1.2Z"/>
    </clipPath>
    <clipPath id="clippath-19">
      <rect class="st1" x="-66.37" y="-26.15" width="445.93" height="297.29"/>
    </clipPath>
    <clipPath id="clippath-21">
      <path class="st1" d="M221.57,96.46l-4.58-4.74h10.32c2.15,0,3.76-.47,4.82-1.41,1.06-.94,1.59-2.24,1.59-3.91s-.53-3.02-1.59-3.96c-1.06-.94-2.66-1.41-4.82-1.41h-10.32l4.58-4.74v20.16ZM233.82,109.38l-9.07-13.29h10.99l9.12,13.29h-11.05ZM211.26,109.38v-36.47h16.67c3.33,0,6.21.54,8.62,1.61,2.42,1.08,4.28,2.63,5.6,4.66,1.32,2.03,1.98,4.44,1.98,7.22s-.66,5.11-1.98,7.11c-1.32,2-3.19,3.52-5.6,4.58-2.41,1.06-5.29,1.59-8.62,1.59h-10.94l4.58-4.33v14.02h-10.32Z"/>
    </clipPath>
    <clipPath id="clippath-22">
      <rect class="st1" x="-66.37" y="-26.15" width="445.93" height="297.29"/>
    </clipPath>
    <clipPath id="clippath-24">
      <path class="st1" d="M268.15,101.67c1.42-.07,2.73-.35,3.93-.83,1.2-.49,2.24-1.19,3.13-2.11.89-.92,1.59-2.01,2.11-3.28.52-1.27.78-2.7.78-4.3-.04-1.6-.3-3.04-.81-4.32-.5-1.29-1.2-2.38-2.08-3.28-.89-.9-1.92-1.61-3.1-2.11-1.18-.5-2.5-.77-3.96-.81-1.35.07-2.64.35-3.86.83-1.22.49-2.27,1.18-3.15,2.08-.89.9-1.57,2-2.06,3.28-.49,1.29-.75,2.73-.78,4.32.04,1.56.3,3,.78,4.3.49,1.3,1.18,2.41,2.08,3.31.9.9,1.95,1.61,3.13,2.11,1.18.5,2.47.77,3.86.81M268.15,110.01c-2.85.04-5.51-.41-8-1.33-2.48-.92-4.64-2.24-6.46-3.96-1.82-1.72-3.23-3.73-4.22-6.04-.99-2.31-1.48-4.82-1.48-7.53-.04-2.74.46-5.25,1.48-7.53,1.02-2.27,2.44-4.27,4.25-5.99,1.81-1.72,3.95-3.05,6.43-3.99,2.48-.94,5.15-1.41,8-1.41,2.99-.04,5.7.42,8.13,1.38,2.43.95,4.56,2.28,6.38,3.99,1.82,1.7,3.24,3.7,4.25,5.99,1.01,2.29,1.49,4.81,1.46,7.55.03,2.75-.45,5.27-1.46,7.58-1.01,2.31-2.42,4.31-4.25,5.99-1.82,1.69-3.95,3-6.38,3.96-2.43.95-5.14,1.4-8.13,1.33Z"/>
    </clipPath>
    <clipPath id="clippath-25">
      <rect class="st1" x="-66.37" y="-26.15" width="445.93" height="297.29"/>
    </clipPath>
    <clipPath id="clippath-27">
      <path class="st1" d="M310.72,110.11c-5.38,0-9.59-1.48-12.61-4.43-3.02-2.95-4.53-7.14-4.53-12.56v-20.21h10.32v19.9c0,3.13.62,5.37,1.85,6.72,1.23,1.35,2.93,2.03,5.08,2.03s3.84-.68,5.05-2.03c1.22-1.35,1.82-3.59,1.82-6.72v-19.9h10.16v20.21c0,5.42-1.51,9.6-4.53,12.56-3.02,2.95-7.22,4.43-12.61,4.43"/>
    </clipPath>
    <clipPath id="clippath-28">
      <rect class="st1" x="-66.37" y="-26.15" width="445.93" height="297.29"/>
    </clipPath>
    <clipPath id="clippath-30">
      <path class="st1" d="M345.16,96.46l-4.58-4.74h10.32c2.15,0,3.76-.47,4.82-1.41,1.06-.94,1.59-2.24,1.59-3.91s-.53-3.02-1.59-3.96c-1.06-.94-2.67-1.41-4.82-1.41h-10.32l4.58-4.74v20.16ZM334.84,109.38v-36.47h16.67c3.33,0,6.21.54,8.62,1.61,2.41,1.08,4.28,2.63,5.6,4.66,1.32,2.03,1.98,4.44,1.98,7.22s-.66,5.12-1.98,7.14c-1.32,2.01-3.19,3.57-5.6,4.66-2.41,1.09-5.29,1.64-8.62,1.64h-10.94l4.58-4.48v14.02h-10.32Z"/>
    </clipPath>
    <clipPath id="clippath-31">
      <rect class="st1" x="-66.37" y="-26.15" width="445.93" height="297.29"/>
    </clipPath>
    <clipPath id="clippath-33">
      <polygon points="180.51 -111.52 180.46 -139.82 169.26 -139.87 169.26 -148 201.93 -148 201.93 -139.82 190.73 -139.87 190.78 -111.52 180.51 -111.52"/>
    </clipPath>
    <clipPath id="clippath-35">
      <path d="M216.1-124.45l-4.58-4.74h10.32c2.15,0,3.76-.47,4.82-1.41,1.06-.94,1.59-2.24,1.59-3.91s-.53-3.02-1.59-3.96c-1.06-.94-2.67-1.41-4.82-1.41h-10.32l4.58-4.74v20.16ZM228.34-111.52l-9.07-13.29h10.99l9.12,13.29h-11.05ZM205.78-111.52v-36.47h16.67c3.33,0,6.21.54,8.62,1.61,2.41,1.08,4.28,2.63,5.6,4.66,1.32,2.03,1.98,4.44,1.98,7.22s-.66,5.11-1.98,7.11c-1.32,2-3.19,3.52-5.6,4.58-2.41,1.06-5.29,1.59-8.62,1.59h-10.94l4.58-4.33v14.02h-10.32Z"/>
    </clipPath>
    <clipPath id="clippath-37">
      <path d="M248.77-118.61l2.66-7.61h17.82l2.66,7.61h-23.13ZM239.96-111.52l16.1-36.47h10.16l16.15,36.47h-10.73l-12.61-31.42h4.06l-12.61,31.42h-10.53Z"/>
    </clipPath>
    <clipPath id="clippath-39">
      <polygon points="294.46 -111.52 278.88 -148 290.03 -148 303.16 -116.42 296.6 -116.42 310.04 -148 320.25 -148 304.62 -111.52 294.46 -111.52"/>
    </clipPath>
    <clipPath id="clippath-41">
      <path d="M332.5-119.44l19.17-.05-.05,7.97h-29.23l.05-36.47h28.55l-.1,7.92-18.29.05-.1,20.58ZM331.82-133.82l16.98-.05-.05,7.66-16.88.05-.05-7.66Z"/>
    </clipPath>
    <clipPath id="clippath-43">
      <polygon points="357.45 -111.52 357.4 -148 367.67 -148 367.72 -119.7 385.07 -119.65 385.12 -111.52 357.45 -111.52"/>
    </clipPath>
    <clipPath id="clippath-45">
      <path d="M195.57-70.64v-13.76h9.12v15.11l-9.12-1.35ZM189.37-64.64c-2.88,0-5.56-.46-8.02-1.38-2.47-.92-4.59-2.23-6.38-3.93-1.79-1.7-3.19-3.71-4.19-6.02-1.01-2.31-1.51-4.85-1.51-7.63s.5-5.32,1.51-7.63c1.01-2.31,2.41-4.32,4.22-6.02,1.81-1.7,3.95-3.01,6.43-3.93,2.48-.92,5.2-1.38,8.15-1.38,3.44,0,6.51.57,9.22,1.72,2.71,1.15,4.95,2.8,6.72,4.95l-6.56,5.94c-1.25-1.35-2.6-2.37-4.04-3.05-1.44-.68-3.05-1.02-4.82-1.02-1.56,0-2.99.24-4.27.73-1.29.49-2.38,1.19-3.28,2.11-.9.92-1.61,2.02-2.11,3.28-.5,1.27-.76,2.7-.76,4.3s.25,2.94.76,4.22c.5,1.29,1.21,2.39,2.11,3.31.9.92,1.99,1.63,3.26,2.14,1.27.5,2.67.75,4.19.75s3.02-.25,4.48-.75c1.46-.5,2.94-1.36,4.43-2.58l5.78,7.24c-2.08,1.49-4.5,2.64-7.24,3.44-2.74.8-5.44,1.2-8.08,1.2Z"/>
    </clipPath>
    <clipPath id="clippath-47">
      <path d="M221.57-78.3l-4.58-4.74h10.32c2.15,0,3.76-.47,4.82-1.41,1.06-.94,1.59-2.24,1.59-3.91s-.53-3.02-1.59-3.96c-1.06-.94-2.66-1.41-4.82-1.41h-10.32l4.58-4.74v20.16ZM233.82-65.37l-9.07-13.29h10.99l9.12,13.29h-11.05ZM211.26-65.37v-36.47h16.67c3.33,0,6.21.54,8.62,1.61,2.42,1.08,4.28,2.63,5.6,4.66,1.32,2.03,1.98,4.44,1.98,7.22s-.66,5.11-1.98,7.11c-1.32,2-3.19,3.52-5.6,4.58-2.41,1.06-5.29,1.59-8.62,1.59h-10.94l4.58-4.33v14.02h-10.32Z"/>
    </clipPath>
    <clipPath id="clippath-49">
      <path d="M268.15-73.09c1.42-.07,2.73-.35,3.93-.83,1.2-.49,2.24-1.19,3.13-2.11.89-.92,1.59-2.01,2.11-3.28.52-1.27.78-2.7.78-4.3-.04-1.6-.3-3.04-.81-4.32-.5-1.29-1.2-2.38-2.08-3.28-.89-.9-1.92-1.61-3.1-2.11-1.18-.5-2.5-.77-3.96-.81-1.35.07-2.64.35-3.86.83-1.22.49-2.27,1.18-3.15,2.08-.89.9-1.57,2-2.06,3.28-.49,1.29-.75,2.73-.78,4.32.04,1.56.3,3,.78,4.3.49,1.3,1.18,2.41,2.08,3.31.9.9,1.95,1.61,3.13,2.11,1.18.5,2.47.77,3.86.81M268.15-64.75c-2.85.04-5.51-.41-8-1.33-2.48-.92-4.64-2.24-6.46-3.96-1.82-1.72-3.23-3.73-4.22-6.04-.99-2.31-1.48-4.82-1.48-7.53-.04-2.74.46-5.25,1.48-7.53,1.02-2.27,2.44-4.27,4.25-5.99,1.81-1.72,3.95-3.05,6.43-3.99,2.48-.94,5.15-1.41,8-1.41,2.99-.04,5.7.42,8.13,1.38,2.43.95,4.56,2.28,6.38,3.99,1.82,1.7,3.24,3.7,4.25,5.99,1.01,2.29,1.49,4.81,1.46,7.55.03,2.75-.45,5.27-1.46,7.58-1.01,2.31-2.42,4.31-4.25,5.99-1.82,1.69-3.95,3-6.38,3.96-2.43.95-5.14,1.4-8.13,1.33Z"/>
    </clipPath>
    <clipPath id="clippath-51">
      <path d="M310.72-64.64c-5.38,0-9.59-1.48-12.61-4.43-3.02-2.95-4.53-7.14-4.53-12.56v-20.21h10.32v19.9c0,3.13.62,5.37,1.85,6.72,1.23,1.35,2.93,2.03,5.08,2.03s3.84-.68,5.05-2.03c1.22-1.35,1.82-3.59,1.82-6.72v-19.9h10.16v20.21c0,5.42-1.51,9.6-4.53,12.56-3.02,2.95-7.22,4.43-12.61,4.43"/>
    </clipPath>
    <clipPath id="clippath-53">
      <path d="M345.16-78.3l-4.58-4.74h10.32c2.15,0,3.76-.47,4.82-1.41,1.06-.94,1.59-2.24,1.59-3.91s-.53-3.02-1.59-3.96c-1.06-.94-2.67-1.41-4.82-1.41h-10.32l4.58-4.74v20.16ZM334.84-65.37v-36.47h16.67c3.33,0,6.21.54,8.62,1.61,2.41,1.08,4.28,2.63,5.6,4.66,1.32,2.03,1.98,4.44,1.98,7.22s-.66,5.12-1.98,7.14c-1.32,2.01-3.19,3.57-5.6,4.66-2.41,1.09-5.29,1.64-8.62,1.64h-10.94l4.58-4.48v14.02h-10.32Z"/>
    </clipPath>
  </defs>
  <g>
    <g>
      <path class="st2" d="M49.83,102.46c-.1-14.67-.2-29.33-.29-44-2.44.1-4.89.2-7.33.29v-11.15h30.8v9.97h-6.75v49.58c.33,9.25-9.87,15.75-26.91,15.54v-7.32c0-3.53,2.18-4.92,7.26-4.99,3.45-.47,3.11-4.81,3.23-7.92"/>
      <path class="st2" d="M127.24,72.45c-4.6-.05-9.19-.1-13.79-.15-.22-7.15-4.36-12.49-10.78-12.32-4.93.1-6.14,6.11-2.27,9.39,6.19,6.28,13.18,11.27,20.34,16.01,20.5,15.4,6.34,51.5-27.27,31.98v4.94h-12.91v-23.86c4.6.05,9.19.1,13.79.15,1.66,17.46,24.22,10.78,15.9,1.1-5.26-4.88-11.86-9.8-17.66-14.3h0c-31.49-22.5,2.88-50.78,21.74-31.85v-4.55h12.91v23.47"/>
      <path class="st2" d="M0,135.57c48.6-13.45,121.32-14.05,169.4.78-58.45-4.99-115.19-5.91-169.4-.78"/>
      <path class="st2" d="M106.67,11.69l-7.46,3.24-8.67-4.97,4.07-1.28,12.06,3.02ZM148.74,1.86c-.56,1.8-1.93,3-3.99,3.69-.14-.57-.29-1.13-.43-1.7,1.97-1.32,3.79-2.78,1.41-3.2-3.81-.44-7.2.31-10.4,1.58-17.74,7.24-35.48,14.47-53.21,21.71-1.74.78-3.13.79-5.88-.38-5.55-2.27-11.11-4.94-16.66-7.91-.82-.44-1.38-.71-2.41-.3-1.46.63-2.91,1.26-4.37,1.88,3.69,5.1,7.39,10.2,11.08,15.3-1.43.85-2.86,1.71-4.3,2.56-.88.48-.73,2.4.98,2.49,19.74-1.23,34.44-6.03,47.94-11.68.36.36.72.72,1.07,1.07.21.21.33.59.15.94-1.56,2.89-3.12,5.78-4.67,8.67,1.13-.15,2.26-.3,3.39-.45.74-.08,1.33-.43,1.77-.9,4.51-5.14,9.02-10.28,13.53-15.41,8.53-3.89,23.82-8.34,28.75-14.13,2.15-3.23-1.98-4.35-3.75-3.83Z"/>
    </g>
    <g>
      <g>
        <g>
          <polygon class="st1" points="180.51 63.23 180.46 34.94 169.26 34.89 169.26 26.76 201.93 26.76 201.93 34.94 190.73 34.89 190.78 63.23 180.51 63.23"/>
          <g class="st34">
            <g>
              <rect class="st1" x="166.84" y="-72.3" width="445.93" height="297.29"/>
              <g class="st20">
                <rect class="st1" x="168.51" y="26.24" width="35.07" height="38.41"/>
              </g>
            </g>
          </g>
        </g>
        <g>
          <path class="st1" d="M216.1,50.31l-4.58-4.74h10.32c2.15,0,3.76-.47,4.82-1.41,1.06-.94,1.59-2.24,1.59-3.91s-.53-3.02-1.59-3.96c-1.06-.94-2.67-1.41-4.82-1.41h-10.32l4.58-4.74v20.16ZM228.34,63.23l-9.07-13.29h10.99l9.12,13.29h-11.05ZM205.78,63.23V26.76h16.67c3.33,0,6.21.54,8.62,1.61,2.41,1.08,4.28,2.63,5.6,4.66,1.32,2.03,1.98,4.44,1.98,7.22s-.66,5.11-1.98,7.11c-1.32,2-3.19,3.52-5.6,4.58-2.41,1.06-5.29,1.59-8.62,1.59h-10.94l4.58-4.33v14.02h-10.32Z"/>
          <g class="st23">
            <g>
              <rect class="st1" x="166.84" y="-72.3" width="445.93" height="297.29"/>
              <g class="st11">
                <rect class="st1" x="205.26" y="26.24" width="35.07" height="38.41"/>
              </g>
            </g>
          </g>
        </g>
        <g>
          <path class="st1" d="M248.77,56.14l2.66-7.61h17.82l2.66,7.61h-23.13ZM239.96,63.23l16.1-36.47h10.16l16.15,36.47h-10.73l-12.61-31.42h4.06l-12.61,31.42h-10.53Z"/>
          <g class="st4">
            <g>
              <rect class="st1" x="166.84" y="-72.3" width="445.93" height="297.29"/>
              <g class="st5">
                <rect class="st1" x="238.66" y="26.24" width="45.09" height="38.41"/>
              </g>
            </g>
          </g>
        </g>
        <g>
          <polygon class="st1" points="294.46 63.23 278.88 26.76 290.03 26.76 303.16 58.33 296.6 58.33 310.04 26.76 320.25 26.76 304.62 63.23 294.46 63.23"/>
          <g class="st13">
            <g>
              <rect class="st1" x="166.84" y="-72.3" width="445.93" height="297.29"/>
              <g class="st14">
                <rect class="st1" x="278.74" y="26.24" width="41.75" height="38.41"/>
              </g>
            </g>
          </g>
        </g>
        <g>
          <path class="st1" d="M332.5,55.31l19.17-.05-.05,7.97h-29.23l.05-36.47h28.55l-.1,7.92-18.29.05-.1,20.58ZM331.82,40.93l16.98-.05-.05,7.66-16.88.05-.05-7.66Z"/>
          <g class="st24">
            <g>
              <rect class="st1" x="166.84" y="-72.3" width="445.93" height="297.29"/>
              <g class="st32">
                <rect class="st1" x="322.17" y="26.24" width="30.06" height="38.41"/>
              </g>
            </g>
          </g>
        </g>
        <g>
          <polygon class="st1" points="357.45 63.23 357.4 26.76 367.67 26.76 367.72 55.05 385.07 55.1 385.12 63.23 357.45 63.23"/>
          <g class="st7">
            <g>
              <rect class="st1" x="166.84" y="-72.3" width="445.93" height="297.29"/>
              <g class="st29">
                <rect class="st1" x="357.24" y="26.24" width="28.39" height="38.41"/>
              </g>
            </g>
          </g>
        </g>
      </g>
      <g>
        <g>
          <path class="st1" d="M195.57,104.12v-13.76h9.12v15.11l-9.12-1.35ZM189.37,110.11c-2.88,0-5.56-.46-8.02-1.38-2.47-.92-4.59-2.23-6.38-3.93-1.79-1.7-3.19-3.71-4.19-6.02-1.01-2.31-1.51-4.85-1.51-7.63s.5-5.32,1.51-7.63c1.01-2.31,2.41-4.32,4.22-6.02,1.81-1.7,3.95-3.01,6.43-3.93,2.48-.92,5.2-1.38,8.15-1.38,3.44,0,6.51.57,9.22,1.72,2.71,1.15,4.95,2.8,6.72,4.95l-6.56,5.94c-1.25-1.35-2.6-2.37-4.04-3.05-1.44-.68-3.05-1.02-4.82-1.02-1.56,0-2.99.24-4.27.73-1.29.49-2.38,1.19-3.28,2.11-.9.92-1.61,2.02-2.11,3.28-.5,1.27-.76,2.7-.76,4.3s.25,2.94.76,4.22c.5,1.29,1.21,2.39,2.11,3.31.9.92,1.99,1.63,3.26,2.14,1.27.5,2.67.75,4.19.75s3.02-.25,4.48-.75c1.46-.5,2.94-1.36,4.43-2.58l5.78,7.24c-2.08,1.49-4.5,2.64-7.24,3.44-2.74.8-5.44,1.2-8.08,1.2Z"/>
          <g class="st9">
            <g>
              <rect class="st1" x="-66.37" y="-26.15" width="445.93" height="297.29"/>
              <g class="st26">
                <rect class="st1" x="169.12" y="70.72" width="36.74" height="40.08"/>
              </g>
            </g>
          </g>
        </g>
        <g>
          <path class="st1" d="M221.57,96.46l-4.58-4.74h10.32c2.15,0,3.76-.47,4.82-1.41,1.06-.94,1.59-2.24,1.59-3.91s-.53-3.02-1.59-3.96c-1.06-.94-2.66-1.41-4.82-1.41h-10.32l4.58-4.74v20.16ZM233.82,109.38l-9.07-13.29h10.99l9.12,13.29h-11.05ZM211.26,109.38v-36.47h16.67c3.33,0,6.21.54,8.62,1.61,2.42,1.08,4.28,2.63,5.6,4.66,1.32,2.03,1.98,4.44,1.98,7.22s-.66,5.11-1.98,7.11c-1.32,2-3.19,3.52-5.6,4.58-2.41,1.06-5.29,1.59-8.62,1.59h-10.94l4.58-4.33v14.02h-10.32Z"/>
          <g class="st3">
            <g>
              <rect class="st1" x="-66.37" y="-26.15" width="445.93" height="297.29"/>
              <g class="st12">
                <rect class="st1" x="210.87" y="72.39" width="35.07" height="38.41"/>
              </g>
            </g>
          </g>
        </g>
        <g>
          <path class="st1" d="M268.15,101.67c1.42-.07,2.73-.35,3.93-.83,1.2-.49,2.24-1.19,3.13-2.11.89-.92,1.59-2.01,2.11-3.28.52-1.27.78-2.7.78-4.3-.04-1.6-.3-3.04-.81-4.32-.5-1.29-1.2-2.38-2.08-3.28-.89-.9-1.92-1.61-3.1-2.11-1.18-.5-2.5-.77-3.96-.81-1.35.07-2.64.35-3.86.83-1.22.49-2.27,1.18-3.15,2.08-.89.9-1.57,2-2.06,3.28-.49,1.29-.75,2.73-.78,4.32.04,1.56.3,3,.78,4.3.49,1.3,1.18,2.41,2.08,3.31.9.9,1.95,1.61,3.13,2.11,1.18.5,2.47.77,3.86.81M268.15,110.01c-2.85.04-5.51-.41-8-1.33-2.48-.92-4.64-2.24-6.46-3.96-1.82-1.72-3.23-3.73-4.22-6.04-.99-2.31-1.48-4.82-1.48-7.53-.04-2.74.46-5.25,1.48-7.53,1.02-2.27,2.44-4.27,4.25-5.99,1.81-1.72,3.95-3.05,6.43-3.99,2.48-.94,5.15-1.41,8-1.41,2.99-.04,5.7.42,8.13,1.38,2.43.95,4.56,2.28,6.38,3.99,1.82,1.7,3.24,3.7,4.25,5.99,1.01,2.29,1.49,4.81,1.46,7.55.03,2.75-.45,5.27-1.46,7.58-1.01,2.31-2.42,4.31-4.25,5.99-1.82,1.69-3.95,3-6.38,3.96-2.43.95-5.14,1.4-8.13,1.33Z"/>
          <g class="st33">
            <g>
              <rect class="st1" x="-66.37" y="-26.15" width="445.93" height="297.29"/>
              <g class="st16">
                <rect class="st1" x="247.62" y="70.72" width="41.75" height="40.08"/>
              </g>
            </g>
          </g>
        </g>
        <g>
          <path class="st1" d="M310.72,110.11c-5.38,0-9.59-1.48-12.61-4.43-3.02-2.95-4.53-7.14-4.53-12.56v-20.21h10.32v19.9c0,3.13.62,5.37,1.85,6.72,1.23,1.35,2.93,2.03,5.08,2.03s3.84-.68,5.05-2.03c1.22-1.35,1.82-3.59,1.82-6.72v-19.9h10.16v20.21c0,5.42-1.51,9.6-4.53,12.56-3.02,2.95-7.22,4.43-12.61,4.43"/>
          <g class="st17">
            <g>
              <rect class="st1" x="-66.37" y="-26.15" width="445.93" height="297.29"/>
              <g class="st19">
                <rect class="st1" x="292.71" y="72.39" width="36.74" height="38.41"/>
              </g>
            </g>
          </g>
        </g>
        <g>
          <path class="st1" d="M345.16,96.46l-4.58-4.74h10.32c2.15,0,3.76-.47,4.82-1.41,1.06-.94,1.59-2.24,1.59-3.91s-.53-3.02-1.59-3.96c-1.06-.94-2.67-1.41-4.82-1.41h-10.32l4.58-4.74v20.16ZM334.84,109.38v-36.47h16.67c3.33,0,6.21.54,8.62,1.61,2.41,1.08,4.28,2.63,5.6,4.66,1.32,2.03,1.98,4.44,1.98,7.22s-.66,5.12-1.98,7.14c-1.32,2.01-3.19,3.57-5.6,4.66-2.41,1.09-5.29,1.64-8.62,1.64h-10.94l4.58-4.48v14.02h-10.32Z"/>
          <g class="st25">
            <g>
              <rect class="st1" x="-66.37" y="-26.15" width="445.93" height="297.29"/>
              <g class="st6">
                <rect class="st1" x="334.47" y="72.39" width="33.4" height="38.41"/>
              </g>
            </g>
          </g>
        </g>
      </g>
    </g>
  </g>
  <g>
    <g>
      <g>
        <polygon points="180.51 -111.52 180.46 -139.82 169.26 -139.87 169.26 -148 201.93 -148 201.93 -139.82 190.73 -139.87 190.78 -111.52 180.51 -111.52"/>
        <g class="st8">
          <rect x="166.84" y="-247.06" width="445.93" height="297.29"/>
        </g>
      </g>
      <g>
        <path d="M216.1-124.45l-4.58-4.74h10.32c2.15,0,3.76-.47,4.82-1.41,1.06-.94,1.59-2.24,1.59-3.91s-.53-3.02-1.59-3.96c-1.06-.94-2.67-1.41-4.82-1.41h-10.32l4.58-4.74v20.16ZM228.34-111.52l-9.07-13.29h10.99l9.12,13.29h-11.05ZM205.78-111.52v-36.47h16.67c3.33,0,6.21.54,8.62,1.61,2.41,1.08,4.28,2.63,5.6,4.66,1.32,2.03,1.98,4.44,1.98,7.22s-.66,5.11-1.98,7.11c-1.32,2-3.19,3.52-5.6,4.58-2.41,1.06-5.29,1.59-8.62,1.59h-10.94l4.58-4.33v14.02h-10.32Z"/>
        <g class="st18">
          <rect x="166.84" y="-247.06" width="445.93" height="297.29"/>
        </g>
      </g>
      <g>
        <path d="M248.77-118.61l2.66-7.61h17.82l2.66,7.61h-23.13ZM239.96-111.52l16.1-36.47h10.16l16.15,36.47h-10.73l-12.61-31.42h4.06l-12.61,31.42h-10.53Z"/>
        <g class="st31">
          <rect x="166.84" y="-247.06" width="445.93" height="297.29"/>
        </g>
      </g>
      <g>
        <polygon points="294.46 -111.52 278.88 -148 290.03 -148 303.16 -116.42 296.6 -116.42 310.04 -148 320.25 -148 304.62 -111.52 294.46 -111.52"/>
        <g class="st28">
          <rect x="166.84" y="-247.06" width="445.93" height="297.29"/>
        </g>
      </g>
      <g>
        <path d="M332.5-119.44l19.17-.05-.05,7.97h-29.23l.05-36.47h28.55l-.1,7.92-18.29.05-.1,20.58ZM331.82-133.82l16.98-.05-.05,7.66-16.88.05-.05-7.66Z"/>
        <g class="st22">
          <rect x="166.84" y="-247.06" width="445.93" height="297.29"/>
        </g>
      </g>
      <g>
        <polygon points="357.45 -111.52 357.4 -148 367.67 -148 367.72 -119.7 385.07 -119.65 385.12 -111.52 357.45 -111.52"/>
        <g class="st15">
          <rect x="166.84" y="-247.06" width="445.93" height="297.29"/>
        </g>
      </g>
    </g>
    <g>
      <g>
        <path d="M195.57-70.64v-13.76h9.12v15.11l-9.12-1.35ZM189.37-64.64c-2.88,0-5.56-.46-8.02-1.38-2.47-.92-4.59-2.23-6.38-3.93-1.79-1.7-3.19-3.71-4.19-6.02-1.01-2.31-1.51-4.85-1.51-7.63s.5-5.32,1.51-7.63c1.01-2.31,2.41-4.32,4.22-6.02,1.81-1.7,3.95-3.01,6.43-3.93,2.48-.92,5.2-1.38,8.15-1.38,3.44,0,6.51.57,9.22,1.72,2.71,1.15,4.95,2.8,6.72,4.95l-6.56,5.94c-1.25-1.35-2.6-2.37-4.04-3.05-1.44-.68-3.05-1.02-4.82-1.02-1.56,0-2.99.24-4.27.73-1.29.49-2.38,1.19-3.28,2.11-.9.92-1.61,2.02-2.11,3.28-.5,1.27-.76,2.7-.76,4.3s.25,2.94.76,4.22c.5,1.29,1.21,2.39,2.11,3.31.9.92,1.99,1.63,3.26,2.14,1.27.5,2.67.75,4.19.75s3.02-.25,4.48-.75c1.46-.5,2.94-1.36,4.43-2.58l5.78,7.24c-2.08,1.49-4.5,2.64-7.24,3.44-2.74.8-5.44,1.2-8.08,1.2Z"/>
        <g class="st21">
          <rect x="-66.37" y="-200.91" width="445.93" height="297.29"/>
        </g>
      </g>
      <g>
        <path d="M221.57-78.3l-4.58-4.74h10.32c2.15,0,3.76-.47,4.82-1.41,1.06-.94,1.59-2.24,1.59-3.91s-.53-3.02-1.59-3.96c-1.06-.94-2.66-1.41-4.82-1.41h-10.32l4.58-4.74v20.16ZM233.82-65.37l-9.07-13.29h10.99l9.12,13.29h-11.05ZM211.26-65.37v-36.47h16.67c3.33,0,6.21.54,8.62,1.61,2.42,1.08,4.28,2.63,5.6,4.66,1.32,2.03,1.98,4.44,1.98,7.22s-.66,5.11-1.98,7.11c-1.32,2-3.19,3.52-5.6,4.58-2.41,1.06-5.29,1.59-8.62,1.59h-10.94l4.58-4.33v14.02h-10.32Z"/>
        <g class="st10">
          <rect x="-66.37" y="-200.91" width="445.93" height="297.29"/>
        </g>
      </g>
      <g>
        <path d="M268.15-73.09c1.42-.07,2.73-.35,3.93-.83,1.2-.49,2.24-1.19,3.13-2.11.89-.92,1.59-2.01,2.11-3.28.52-1.27.78-2.7.78-4.3-.04-1.6-.3-3.04-.81-4.32-.5-1.29-1.2-2.38-2.08-3.28-.89-.9-1.92-1.61-3.1-2.11-1.18-.5-2.5-.77-3.96-.81-1.35.07-2.64.35-3.86.83-1.22.49-2.27,1.18-3.15,2.08-.89.9-1.57,2-2.06,3.28-.49,1.29-.75,2.73-.78,4.32.04,1.56.3,3,.78,4.3.49,1.3,1.18,2.41,2.08,3.31.9.9,1.95,1.61,3.13,2.11,1.18.5,2.47.77,3.86.81M268.15-64.75c-2.85.04-5.51-.41-8-1.33-2.48-.92-4.64-2.24-6.46-3.96-1.82-1.72-3.23-3.73-4.22-6.04-.99-2.31-1.48-4.82-1.48-7.53-.04-2.74.46-5.25,1.48-7.53,1.02-2.27,2.44-4.27,4.25-5.99,1.81-1.72,3.95-3.05,6.43-3.99,2.48-.94,5.15-1.41,8-1.41,2.99-.04,5.7.42,8.13,1.38,2.43.95,4.56,2.28,6.38,3.99,1.82,1.7,3.24,3.7,4.25,5.99,1.01,2.29,1.49,4.81,1.46,7.55.03,2.75-.45,5.27-1.46,7.58-1.01,2.31-2.42,4.31-4.25,5.99-1.82,1.69-3.95,3-6.38,3.96-2.43.95-5.14,1.4-8.13,1.33Z"/>
        <g class="st30">
          <rect x="-66.37" y="-200.91" width="445.93" height="297.29"/>
        </g>
      </g>
      <g>
        <path d="M310.72-64.64c-5.38,0-9.59-1.48-12.61-4.43-3.02-2.95-4.53-7.14-4.53-12.56v-20.21h10.32v19.9c0,3.13.62,5.37,1.85,6.72,1.23,1.35,2.93,2.03,5.08,2.03s3.84-.68,5.05-2.03c1.22-1.35,1.82-3.59,1.82-6.72v-19.9h10.16v20.21c0,5.42-1.51,9.6-4.53,12.56-3.02,2.95-7.22,4.43-12.61,4.43"/>
        <g class="st0">
          <rect x="-66.37" y="-200.91" width="445.93" height="297.29"/>
        </g>
      </g>
      <g>
        <path d="M345.16-78.3l-4.58-4.74h10.32c2.15,0,3.76-.47,4.82-1.41,1.06-.94,1.59-2.24,1.59-3.91s-.53-3.02-1.59-3.96c-1.06-.94-2.67-1.41-4.82-1.41h-10.32l4.58-4.74v20.16ZM334.84-65.37v-36.47h16.67c3.33,0,6.21.54,8.62,1.61,2.41,1.08,4.28,2.63,5.6,4.66,1.32,2.03,1.98,4.44,1.98,7.22s-.66,5.12-1.98,7.14c-1.32,2.01-3.19,3.57-5.6,4.66-2.41,1.09-5.29,1.64-8.62,1.64h-10.94l4.58-4.48v14.02h-10.32Z"/>
        <g class="st27">
          <rect x="-66.37" y="-200.91" width="445.93" height="297.29"/>
        </g>
      </g>
    </g>
  </g>
</svg>